<svg viewBox="0 0 400 300" xmlns="http://www.w3.org/2000/svg" xmlns:xlink="http://www.w3.org/1999/xlink"><linearGradient id="a" gradientUnits="userSpaceOnUse" x1="132.13" x2="167.22" y1="173.07" y2="138.76"><stop offset="0" stop-color="#fff" stop-opacity="0"/><stop offset=".99" stop-color="#552d00"/></linearGradient><linearGradient id="b" x1="196.89" x2="220.5" xlink:href="#a" y1="249.7" y2="212.39"/><linearGradient id="c" x1="86.13" x2="115.18" xlink:href="#a" y1="217.49" y2="200.23"/><path d="m40.49 193 146.56 84.62a12.28 12.28 0 0 0 12.21 0l169.09-96.09a6.85 6.85 0 0 0 0-11.88l-150.54-87.1a4.75 4.75 0 0 0 -4.8 0l-172.57 102.22a4.75 4.75 0 0 0 .05 8.23z" fill="#decdc6"/><path d="m221.02 137.02-124.07 73.39-34.35-20.23 88.42-51.88" fill="url(#a)" opacity=".32"/><path d="m325.66 197.16-129.24 74.54-80.03-45.72 56.06-31.22" fill="url(#b)" opacity=".32"/><path d="m203.27 225.37 10.78-6.35-2.96-3.17-8.31 5.43" fill="#c65517"/><path d="m196.42 217.18 12.55-7.15 4.54 5.18-10.24 6.03" fill="#ea6c0f"/><path d="m203.27 221.24-6.85-4.06v4.06l6.85 4.13z" fill="#ff7c28"/><path d="m184.11 214.5 10.78-6.35-2.95-3.17-8.31 5.43" fill="#c65517"/><path d="m177.26 206.31 12.55-7.15 4.54 5.18-10.24 6.03" fill="#ea6c0f"/><path d="m184.11 210.37-6.85-4.06v4.06l6.85 4.13z" fill="#ff7c28"/><path d="m164.81 203.55 10.78-6.35-2.96-3.18-8.31 5.43" fill="#c65517"/><path d="m157.96 195.36 12.55-7.16 4.54 5.19-10.24 6.02" fill="#ea6c0f"/><path d="m164.81 199.41-6.85-4.05v4.05l6.85 4.14z" fill="#ff7c28"/><path d="m225.11 238.1 10.78-6.35-2.96-3.18-8.31 5.44" fill="#c65517"/><path d="m218.26 229.91 12.55-7.16 4.54 5.19-10.24 6.03" fill="#ea6c0f"/><path d="m225.11 233.97-6.85-4.06v4.06l6.85 4.13z" fill="#ff7c28"/><path d="m279.63 224.23-10.78-6.35 2.95-3.17 8.31 5.43" fill="#c65517"/><path d="m286.48 216.04-12.55-7.15-4.54 5.18 10.24 6.03" fill="#ea6c0f"/><path d="m279.63 220.1 6.85-4.06v4.06l-6.85 4.13z" fill="#ff7c28"/><path d="m298.01 213.57-10.78-6.35 2.95-3.17 8.31 5.43" fill="#c65517"/><path d="m304.86 205.38-12.55-7.15-4.54 5.18 10.24 6.03" fill="#ea6c0f"/><path d="m298.01 209.44 6.85-4.06v4.06l-6.85 4.13z" fill="#ff7c28"/><path d="m318.12 201.44-10.78-6.35 2.95-3.18 8.31 5.43" fill="#c65517"/><path d="m324.96 193.25-12.55-7.16-4.53 5.19 10.24 6.03" fill="#ea6c0f"/><path d="m318.12 197.31 6.84-4.06v4.06l-6.84 4.13z" fill="#ff7c28"/><path d="m258.06 237.17-10.78-6.35 2.95-3.17 8.31 5.43" fill="#c65517"/><path d="m264.91 228.98-12.56-7.15-4.53 5.18 10.24 6.03" fill="#ea6c0f"/><path d="m258.06 233.04 6.85-4.06v4.06l-6.85 4.13z" fill="#ff7c28"/><path d="m160.91 187.59v2.35l81.31 47.23s83.9-49.69 83.85-49.95 0-2.61 0-2.61" fill="#68e1fd"/><path d="m160.91 187.59v2.35l81.31 47.23s83.9-49.69 83.85-49.95 0-2.61 0-2.61" opacity=".25"/><path d="m242.45 234.22 83.63-49.61-82.49-47.63-82.68 50.61z" fill="#68e1fd"/><path d="m242.18 194.47v-23.36l20.91-11.68v23.17z" fill="#eca016"/><path d="m242.18 171.11-20.35-11.68s-.57 23.55 0 23.93 20.35 11.12 20.35 11.12z" fill="#ffb72f"/><path d="m221.83 159.43 20.35-12.44 20.91 12.44-20.91 11.68z" fill="#ffc863"/><path d="m229.58 154.69 21.18 11.62v12.19l6.09-3.07v-12.52l-21.18-11.94z" fill="#fdedcb"/><path d="m217.62 207.7v-23.36l20.91-11.68v23.17z" fill="#eca016"/><path d="m217.62 184.34-20.35-11.68s-.57 23.55 0 23.93 20.35 11.12 20.35 11.12z" fill="#ffb72f"/><path d="m197.27 172.66 20.35-12.44 20.91 12.44-20.91 11.68z" fill="#ffc863"/><path d="m205.02 167.92 21.19 11.62v12.19l6.08-3.07v-12.52l-21.17-11.94z" fill="#fdedcb"/><path d="m266.39 208.07v-23.36l20.91-11.71v23.17z" fill="#eca016"/><path d="m266.39 184.71-20.39-11.71s-.57 23.55 0 23.93 20.35 11.12 20.35 11.12z" fill="#ffb72f"/><path d="m246.04 173.03 20.35-12.43 20.91 12.43-20.91 11.68z" fill="#ffc863"/><path d="m253.79 168.3 21.18 11.62v12.19l6.09-3.07v-12.52l-21.18-11.95z" fill="#fdedcb"/><path d="m242.33 221.3v-23.36l20.91-11.68v23.17z" fill="#eca016"/><path d="m242.33 197.94-20.33-11.69s-.57 23.55 0 23.93 20.35 11.12 20.35 11.12z" fill="#ffb72f"/><path d="m221.99 186.25 20.34-12.43 20.92 12.43-20.92 11.69z" fill="#ffc863"/><path d="m229.74 181.52 21.18 11.62v12.19l6.09-3.07v-12.52l-21.18-11.95z" fill="#fdedcb"/><path d="m242 187.93v-23.36l20.91-11.68v23.17z" fill="#eca016"/><path d="m242 164.57-20.35-11.68s-.57 23.55 0 23.93 20.35 11.11 20.35 11.11z" fill="#ffb72f"/><path d="m221.67 152.89 20.35-12.43 20.91 12.43-20.91 11.68z" fill="#ffc863"/><path d="m229.42 148.16 21.18 11.62v12.19l6.09-3.07v-12.52l-21.17-11.95z" fill="#fdedcb"/><path d="m185.54 157.16v-39.64l35.46-19.82v39.3z" fill="#eca016"/><path d="m185.54 117.52-34.54-19.82s-1 40 0 40.6 34.52 18.86 34.52 18.86z" fill="#ffb72f"/><path d="m151.02 97.7 34.52-21.09 35.48 21.09-35.48 19.82z" fill="#ffc863"/><path d="m164.16 89.67 35.95 19.72v20.68l10.33-5.21v-21.25l-35.93-20.26z" fill="#fdedcb"/><path d="m111.79 88.05 11.84 7.96-6.43 6.43h-7.01" fill="#1b8c7c"/><path d="m88.07 227.43 37.06-24.5-13.13-8.75-41.46 21.47c4.08 6.68 10.97 7.35 17.53 11.78z" fill="url(#c)" opacity=".32"/><path d="m103.45 200.09s.64 5.59 3.55 6.68 4.39 3 2.65 4.35-10.15-2.19-10.15-2.19l-3-6.62-.23 4.89-3.17-1.82.41-17.68 8.68 2.35z" fill="#c44b08"/><path d="m119 192s.63 5.55 3.52 6.63 4.36 2.93 2.63 4.32-10.07-2.17-10.07-2.17l-3-6.57-.28 4.79-3.15-1.81.57-16.66 8.45 1.44z" fill="#c44b08"/><path d="m107.27 123.74-3.27 72.49c-3.39 2.12-12.78.78-12.78.78s-4-58.72 2.81-74.6" fill="#ffa852"/><path d="m105.67 117.91 1.83 70.58s9.32 1.34 12.68-.77l-2.43-72.88" fill="#ffa852"/><path d="m94 122.4c4.35 2.91 11.83 3.82 17.39 2.13a16.23 16.23 0 0 0 3.12-2.66c-.23-5.5-.51-11-.48-16.52s.23-12.13-2.26-17.31a23.57 23.57 0 0 0 -4.91-1.86c-2.58-.66-7.93 1.93-10.11 3.26a12.39 12.39 0 0 0 -5.4 8.56 163.39 163.39 0 0 1 2.33 19.6c.1 1.58.23 3.19.32 4.8z" fill="#3ab4a7"/><path d="m107.73 84.67s-.08 3.8-1.58 4.38-5.21-1.37-5.25-2.45 2.54-3.38 2.54-3.38" fill="#f49138"/><path d="m100 87.79.64-3.06 5.9 3.91v3.43s-4.62-.9-6.54-4.28z" fill="#1b8c7c"/><path d="m106.53 88.65 1.84 2.41s1-2.7.3-4.24-1.56-1.76-1.56-1.76.33 2.68-.58 3.59z" fill="#1b8c7c"/><path d="m112.25 75.92s.58 10.53-5.06 10.9-5.12-4.1-5.12-4.1-1.45-9.57 3.67-10.3 6.51 3.5 6.51 3.5z" fill="#ffa852"/><path d="m108.37 79.28-2.77.27-.87-2.19.58 8.21a16.68 16.68 0 0 1 0 2.49s-5.77.27-9.11-2.73-.63-15.52 5.7-16.26 12.15 2 12 9l-1.37.46z" fill="#42210b"/><path d="m128.58 131.31v-21.11l18.9-10.55v20.94z" fill="#eca016"/><path d="m128.58 110.2-18.39-10.56s-.51 21.28 0 21.62 18.39 10 18.39 10z" fill="#ffb72f"/><path d="m110.19 99.64 18.39-11.23 18.9 11.23-18.9 10.56z" fill="#ffc863"/><path d="m117.2 95.37 19.14 10.49v11.02l5.5-2.77v-11.32l-19.14-10.79z" fill="#fdedcb"/><path d="m112.27 123.16 9.26 5.7s3.28 1.39 4.61.48c.43-.29-5.57-3.93-5.57-3.93s3.28-1.3 3.28-1.79-1.87-.84-2.32-.78-7.12-3.78-7.12-3.78z" fill="#ffa852"/><path d="m93 108.2.68 9.4s12.91 6.56 18.59 6.33-19.27-15.73-19.27-15.73z" fill="#1b8c7c"/><path d="m114.54 114.44a6.85 6.85 0 0 1 -.59-.67 28.07 28.07 0 0 1 -7.76-6.07c-2.17-2.33-4.86-5.32-5.77-8.4a.67.67 0 0 1 0-.12 14.68 14.68 0 0 1 -1.54-8.78 1.77 1.77 0 0 0 -1.07-.55c-2.54.1-5.21 3.19-6.3 5.37s-1 5-.38 7.58a31 31 0 0 0 1.87 5.4 20.18 20.18 0 0 0 3.78 5.68 101.67 101.67 0 0 0 8.75 7.55 73.85 73.85 0 0 0 10.37 6 92.48 92.48 0 0 0 1.82-10.41 36.14 36.14 0 0 1 -3.18-2.58z" fill="#3ab4a7"/><path d="m100 100.11s9.07 12.94 14.55 14.33z" fill="#1b8c7c"/><path d="m107.05 130.19-3.61 66.53c0 .64 1 .64 1 0l3.61-66.53c.04-.64-.96-.64-1 0z" fill="#b26a29"/><path d="m316.1 77.34-1 74.41a3.69 3.69 0 0 1 -5.51 3.16l-48.29-27.48a3.69 3.69 0 0 1 -1.86-3.21v-78.22a2.08 2.08 0 0 1 3.12-1.8l51.7 29.92a3.69 3.69 0 0 1 1.84 3.22z" fill="#68e1fd"/><path d="m274 50.77c.09.05 0 9.56 0 9.56l27.52 15.9v-9.53z" fill="#723d49"/><path d="m265.52 55.89 44.38 25.66v61.84l-44.38-24.38z" fill="#fff"/><path d="m271.33 74.41 28.97 15.47" fill="#fff"/><path d="m270.57 75.71 29 15.47c1.7.91 3.22-1.68 1.51-2.59l-29-15.47c-1.7-.91-3.22 1.68-1.51 2.59z" fill="#ccc"/><path d="m271.33 86.2 28.97 15.47" fill="#fff"/><path d="m270.57 87.5 29 15.47c1.7.91 3.22-1.68 1.51-2.59l-29-15.47c-1.7-.91-3.22 1.68-1.51 2.59z" fill="#ccc"/><path d="m271.33 98 28.97 15.47" fill="#fff"/><path d="m270.57 99.29 29 15.47c1.7.91 3.22-1.68 1.51-2.59l-29-15.47c-1.7-.91-3.22 1.68-1.51 2.59z" fill="#ccc"/><path d="m271.33 109.79 28.97 15.47" fill="#fff"/><path d="m270.57 111.08 29 15.47c1.7.91 3.22-1.68 1.51-2.59l-29-15.47c-1.7-.91-3.22 1.68-1.51 2.59z" fill="#ccc"/></svg>